<svg width="21" height="21" viewBox="0 0 21 21" fill="none" xmlns="http://www.w3.org/2000/svg">
<path d="M1.36111 20.5H19.1389C19.75 20.5 20.25 19.75 20.25 18.8333C20.25 17.9167 19.75 17.1667 19.1389 17.1667H1.36111C0.75 17.1667 0.25 17.9167 0.25 18.8333C0.25 19.75 0.75 20.5 1.36111 20.5ZM1.36111 12.1667H19.1389C19.75 12.1667 20.25 11.4167 20.25 10.5C20.25 9.58333 19.75 8.83333 19.1389 8.83333H1.36111C0.75 8.83333 0.25 9.58333 0.25 10.5C0.25 11.4167 0.75 12.1667 1.36111 12.1667ZM0.25 2.16667C0.25 3.08333 0.75 3.83333 1.36111 3.83333H19.1389C19.75 3.83333 20.25 3.08333 20.25 2.16667C20.25 1.25 19.75 0.5 19.1389 0.5H1.36111C0.75 0.5 0.25 1.25 0.25 2.16667Z" fill="white"/>
</svg>
