<svg width="24" height="21" viewBox="0 0 24 21" fill="none" xmlns="http://www.w3.org/2000/svg">
<path d="M17.1328 0.734375C15.1709 0.734375 13.4297 1.50879 12.25 2.83984C11.0703 1.50879 9.3291 0.734375 7.36719 0.734375C5.65842 0.736442 4.02023 1.41616 2.81195 2.62445C1.60366 3.83273 0.923942 5.47092 0.921875 7.17969C0.921875 14.2441 11.2549 19.8887 11.6943 20.126C11.8651 20.2179 12.056 20.2661 12.25 20.2661C12.444 20.2661 12.6349 20.2179 12.8057 20.126C13.2451 19.8887 23.5781 14.2441 23.5781 7.17969C23.5761 5.47092 22.8963 3.83273 21.6881 2.62445C20.4798 1.41616 18.8416 0.736442 17.1328 0.734375ZM16.5967 14.6367C15.2366 15.7909 13.7827 16.8296 12.25 17.7422C10.7173 16.8296 9.26341 15.7909 7.90332 14.6367C5.78711 12.8213 3.26562 10.0527 3.26562 7.17969C3.26562 6.09189 3.69775 5.04864 4.46694 4.27944C5.23614 3.51025 6.27939 3.07813 7.36719 3.07813C9.10547 3.07813 10.5605 3.99609 11.165 5.47461C11.253 5.69014 11.4032 5.87459 11.5964 6.00442C11.7897 6.13426 12.0172 6.2036 12.25 6.2036C12.4828 6.2036 12.7103 6.13426 12.9036 6.00442C13.0968 5.87459 13.247 5.69014 13.335 5.47461C13.9395 3.99609 15.3945 3.07813 17.1328 3.07813C18.2206 3.07813 19.2639 3.51025 20.0331 4.27944C20.8022 5.04864 21.2344 6.09189 21.2344 7.17969C21.2344 10.0527 18.7129 12.8213 16.5967 14.6367Z" fill="white"/>
</svg>
