<svg width="23" height="21" viewBox="0 0 23 21" fill="none" xmlns="http://www.w3.org/2000/svg">
<path fill-rule="evenodd" clip-rule="evenodd" d="M10.2339 0.0834961C8.60235 0.0836583 6.99459 0.44256 5.5452 1.13016C4.0958 1.81775 2.84696 2.81403 1.9032 4.0356C0.959446 5.25717 0.348246 6.66847 0.120764 8.15137C-0.106717 9.63427 0.056141 11.1456 0.595705 12.5589C1.13527 13.9721 2.03584 15.2462 3.22202 16.2744C4.4082 17.3026 5.84549 18.0551 7.41355 18.4687C8.98161 18.8824 10.6348 18.9453 12.2348 18.6521C13.8348 18.3589 15.3349 17.7181 16.6097 16.7835L20.7804 20.6116C20.9945 20.8014 21.2811 20.9064 21.5787 20.904C21.8763 20.9016 22.1609 20.7921 22.3713 20.5989C22.5818 20.4058 22.7011 20.1445 22.7037 19.8714C22.7063 19.5983 22.5919 19.3352 22.3852 19.1387L18.2144 15.3106C19.4152 13.9313 20.1671 12.2688 20.3838 10.5145C20.6005 8.76022 20.273 6.98544 19.4392 5.39443C18.6053 3.80342 17.299 2.46087 15.6704 1.5213C14.0419 0.581734 12.1574 0.0833434 10.2339 0.0834961ZM3.42456 9.4585C3.42456 8.63774 3.60069 7.82501 3.94289 7.06673C4.28509 6.30844 4.78666 5.61944 5.41897 5.03908C6.05128 4.45871 6.80193 3.99834 7.62808 3.68425C8.45423 3.37016 9.33968 3.2085 10.2339 3.2085C11.1281 3.2085 12.0136 3.37016 12.8397 3.68425C13.6659 3.99834 14.4165 4.45871 15.0488 5.03908C15.6811 5.61944 16.1827 6.30844 16.5249 7.06673C16.8671 7.82501 17.0432 8.63774 17.0432 9.4585C17.0432 11.1161 16.3258 12.7058 15.0488 13.8779C13.7718 15.05 12.0398 15.7085 10.2339 15.7085C8.42795 15.7085 6.69597 15.05 5.41897 13.8779C4.14197 12.7058 3.42456 11.1161 3.42456 9.4585Z" fill="black"/>
</svg>
