<svg width="19" height="21" viewBox="0 0 19 21" fill="none" xmlns="http://www.w3.org/2000/svg">
<path d="M17.7095 16.6426C17.249 15.5517 16.5807 14.5608 15.7418 13.7251C14.9054 12.887 13.9147 12.2188 12.8243 11.7573C12.8145 11.7524 12.8047 11.75 12.795 11.7451C14.316 10.6465 15.3047 8.85693 15.3047 6.83789C15.3047 3.49316 12.5948 0.783203 9.25006 0.783203C5.90533 0.783203 3.19537 3.49316 3.19537 6.83789C3.19537 8.85693 4.18414 10.6465 5.70514 11.7476C5.69537 11.7524 5.68561 11.7549 5.67584 11.7598C4.58209 12.2212 3.60065 12.8828 2.75836 13.7275C1.92025 14.5639 1.25203 15.5546 0.790588 16.645C0.337273 17.7125 0.0927904 18.857 0.0703735 20.0166C0.0697219 20.0427 0.0742923 20.0686 0.0838155 20.0928C0.0933387 20.1171 0.107622 20.1392 0.125824 20.1579C0.144025 20.1765 0.165777 20.1914 0.189798 20.2015C0.213818 20.2116 0.239621 20.2168 0.265686 20.2168H1.73053C1.83795 20.2168 1.9234 20.1313 1.92584 20.0264C1.97467 18.1416 2.73151 16.3765 4.0694 15.0386C5.45367 13.6543 7.29205 12.8926 9.25006 12.8926C11.2081 12.8926 13.0464 13.6543 14.4307 15.0386C15.7686 16.3765 16.5255 18.1416 16.5743 20.0264C16.5767 20.1338 16.6622 20.2168 16.7696 20.2168H18.2344C18.2605 20.2168 18.2863 20.2116 18.3103 20.2015C18.3343 20.1914 18.3561 20.1765 18.3743 20.1579C18.3925 20.1392 18.4068 20.1171 18.4163 20.0928C18.4258 20.0686 18.4304 20.0427 18.4297 20.0166C18.4053 18.8496 18.1636 17.7144 17.7095 16.6426ZM9.25006 11.0371C8.12946 11.0371 7.07477 10.6001 6.28131 9.80664C5.48785 9.01318 5.05084 7.9585 5.05084 6.83789C5.05084 5.71729 5.48785 4.6626 6.28131 3.86914C7.07477 3.07568 8.12946 2.63867 9.25006 2.63867C10.3707 2.63867 11.4254 3.07568 12.2188 3.86914C13.0123 4.6626 13.4493 5.71729 13.4493 6.83789C13.4493 7.9585 13.0123 9.01318 12.2188 9.80664C11.4254 10.6001 10.3707 11.0371 9.25006 11.0371Z" fill="white"/>
</svg>
